<?xml version="1.0" encoding="UTF-8" standalone="no"?>
<!-- Created with Inkscape (http://www.inkscape.org/) -->

<svg
   xmlns:dc="http://purl.org/dc/elements/1.1/"
   xmlns:cc="http://creativecommons.org/ns#"
   xmlns:rdf="http://www.w3.org/1999/02/22-rdf-syntax-ns#"
   xmlns:svg="http://www.w3.org/2000/svg"
   xmlns="http://www.w3.org/2000/svg"
   xmlns:sodipodi="http://sodipodi.sourceforge.net/DTD/sodipodi-0.dtd"
   xmlns:inkscape="http://www.inkscape.org/namespaces/inkscape"
   width="50.0mm"
   height="50.0mm"
   viewBox="0 0 50.0 50.0"
   version="1.1"
   id="svg8"
   inkscape:version="0.92.4 (unknown)"
   sodipodi:docname="maks.svg">
  <defs
     id="defs2" />
  <sodipodi:namedview
     id="base"
     pagecolor="#ffffff"
     bordercolor="#666666"
     borderopacity="1.0"
     inkscape:pageopacity="0.0"
     inkscape:pageshadow="2"
     inkscape:zoom="22.627417"
     inkscape:cx="29.974466"
     inkscape:cy="86.967738"
     inkscape:document-units="mm"
     inkscape:current-layer="g37"
     showgrid="true"
     inkscape:window-width="1920"
     inkscape:window-height="1144"
     inkscape:window-x="0"
     inkscape:window-y="27"
     inkscape:window-maximized="1"
     borderlayer="true"
     showguides="false"
     inkscape:snap-global="false">
    <inkscape:grid
       snapvisiblegridlinesonly="false"
       spacingx="0.99999999"
       spacingy="0.99999999"
       empspacing="1"
       type="xygrid"
       units="mm"
       id="grid11" />
  </sodipodi:namedview>
  <metadata
     id="metadata5">
    <rdf:RDF>
      <cc:Work
         rdf:about="">
        <dc:format>image/svg+xml</dc:format>
        <dc:type
           rdf:resource="http://purl.org/dc/dcmitype/StillImage" />
        <dc:title />
      </cc:Work>
    </rdf:RDF>
  </metadata>
  <g
     id="g17"
     sodipodi:insensitive="true"
     inkscape:groupmode="layer"
     inkscape:label="[fixed] BG"
     style="display:inline">
    <rect
       id="rect15"
       style="fill:#ffffff;fill-opacity:1;stroke:none"
       height="50"
       width="50"
       y="0"
       x="0" />
  </g>
  <g
     id="g19"
     inkscape:groupmode="layer"
     inkscape:label="F.Cu"
     style="display:inline">
    <path
       style="display:inline;fill:#fcc94c;stroke-width:0.38935617"
       d="M 94.654297,0 C 92.985046,0 89.101256,0.26275495 86.023438,0.58398438 82.945604,0.90521527 78.597082,1.5357551 76.361328,1.984375 74.125574,2.4329949 70.50321,3.3016758 68.310547,3.9160156 c -2.192673,0.6143413 -5.757361,1.8211912 -7.921875,2.6816406 -2.164512,0.8604495 -5.88602,2.5396669 -8.269531,3.7324218 -2.38351,1.192757 -5.759352,3.057473 -7.501953,4.142578 -1.742602,1.085104 -4.834475,3.215031 -6.871094,4.734375 -2.036619,1.519344 -5.791758,4.777158 -8.34375,7.238281 -2.551994,2.461123 -5.959119,6.04941 -7.572266,7.97461 -1.613147,1.925204 -4.326219,5.601035 -6.027344,8.167969 -1.701123,2.566933 -4.148834,6.76705 -5.439453,9.333984 C 9.072663,54.488809 7.2357921,58.602521 6.28125,61.0625 5.3267079,63.522479 3.9653837,67.809 3.2558594,70.589844 2.546335,73.370687 1.7002496,77.396042 1.375,79.535156 1.0497504,81.674255 0.58029302,84.82583 0.33203125,86.537109 c -0.0460878,0.317692 -0.0697004,0.690939 -0.10351563,1.039063 0.0345801,-0.243981 0.0667955,-0.498105 0.10742188,-0.69336 0.23992441,-1.153103 0.58441088,-2.097656 0.7675781,-2.097656 0.1831559,0 10.5444884,4.633393 23.0234374,10.296875 12.478954,5.663479 22.839854,10.204269 23.025391,10.089849 0.185537,-0.11437 0.33789,-1.65313 0.33789,-3.41993 0,-1.791198 0.270924,-4.125047 0.613282,-5.275388 0.438799,-1.474363 1.139146,-2.585374 2.451172,-3.894531 1.160526,-1.157968 2.536578,-2.070567 3.742187,-2.480469 1.729576,-0.588034 5.488631,-0.648437 40.357422,-0.648437 34.868793,0 38.627843,0.06045 40.357423,0.648437 1.20561,0.409902 2.58166,1.322501 3.74219,2.480469 1.31203,1.309157 2.01042,2.420168 2.44921,3.894531 0.34235,1.150341 0.61524,3.48419 0.61524,5.275388 0,1.7668 0.14809,3.30379 0.33008,3.41602 0.18198,0.11229 10.54455,-4.42855 23.02734,-10.089845 12.48279,-5.661294 22.83669,-10.292969 23.00977,-10.292969 0.12872,0 0.2862,0.248926 0.41797,0.558594 -0.16199,-2.541333 -0.38976,-4.57127 -0.75,-6.585938 -0.45899,-2.566933 -1.35977,-6.629542 -2,-9.029296 -0.64024,-2.399769 -1.92837,-6.33872 -2.86329,-8.751954 -0.93493,-2.413233 -2.75625,-6.487753 -4.04687,-9.054687 -1.29061,-2.566934 -3.73832,-6.767051 -5.43945,-9.333984 -1.70112,-2.566934 -4.41224,-6.242765 -6.02539,-8.167969 -1.61314,-1.9252 -5.02223,-5.513487 -7.57422,-7.97461 -2.55201,-2.461123 -6.30601,-5.722671 -8.34375,-7.248046 -2.03776,-1.525374 -5.28264,-3.732178 -7.21094,-4.904297 -1.9283,-1.172118 -5.30294,-3.031778 -7.49805,-4.13086 -2.19509,-1.0990809 -5.7636,-2.7014225 -7.92968,-3.5624996 C 126.75577,5.7385308 123.19071,4.5303569 120.99805,3.9160156 118.80537,3.3016758 115.18107,2.4329949 112.94531,1.984375 110.70956,1.5357551 106.36298,0.90521527 103.28516,0.58398438 100.20732,0.26275495 96.323548,0 94.654297,0 Z M 0.1015625,92.550781 c 0.0280579,1.470893 0.0801924,3.122967 0.1875,5.265625 C 0.52243614,102.47631 1.0426532,107.90323 1.5,110.45508 c 0.4408794,2.45998 1.3227516,6.43439 1.9589844,8.83203 0.6362342,2.39764 1.8814085,6.24824 2.7675781,8.55664 0.8861696,2.30841 1.7731577,4.40365 1.9707031,4.6543 0.197544,0.25063 1.0235825,1.82542 1.8359374,3.5 0.006,0.0124 0.01927,0.0362 0.02539,0.0488 -0.7156521,-1.51004 -1.1957366,-2.73615 -1.0878909,-2.84376 0.125367,-0.1251 8.4374409,1.26931 18.4707029,3.09766 10.033257,1.82835 18.647516,3.32422 19.144532,3.32422 0.903654,0 0.904296,2e-4 0.904296,-11.65234 0,-9.26873 -0.107707,-11.75326 -0.52539,-12.14258 C 46.67605,115.5609 36.019989,110.61037 23.285156,104.82812 3.0398619,95.635786 0.49880597,94.47922 0.1015625,92.550781 Z M 188.88086,93.222656 c -0.10044,0.828243 -0.30682,1.140351 -0.77734,1.44336 -0.48236,0.310639 -10.95372,5.132296 -23.27149,10.714844 -12.31779,5.58255 -22.53259,10.36527 -22.69922,10.62695 -0.16664,0.2617 -0.3053,5.68303 -0.30859,12.04688 -0.006,11.57065 -0.006,11.57031 0.89844,11.57031 0.49757,0 9.04843,-1.48651 19.00195,-3.30273 9.95351,-1.81622 18.22789,-3.30267 18.38867,-3.30469 0.16078,-0.002 0.29297,0.27922 0.29297,0.625 0,0.13897 -0.20857,0.66129 -0.50195,1.33203 1.373,-2.90031 2.84413,-6.20376 3.36718,-7.59961 0.5611,-1.49737 1.46722,-4.21105 2.01368,-6.0293 0.54645,-1.81823 1.41691,-5.40572 1.93359,-7.97265 0.51668,-2.56694 1.13963,-6.43462 1.38477,-8.59375 0.2501,-2.20388 0.35141,-6.708006 0.27734,-11.556644 z M 12.544922,140.74414 c 0.416092,0.75409 0.84466,1.54476 1.216797,2.1875 1.238443,2.139 2.789237,4.67596 3.445312,5.63867 2.597689,3.81182 7.0481,8.9676 11.441407,13.25391 2.538074,2.47626 5.852761,5.47687 7.367187,6.66797 1.514425,1.1911 4.601461,3.38036 6.859375,4.86523 2.257911,1.48489 6.059093,3.69712 8.447266,4.91602 2.388171,1.2189 6.257657,2.9835 8.597656,3.92187 2.339999,0.93837 6.133367,2.24357 8.429687,2.90039 2.296318,0.65684 6.039906,1.54915 8.320313,1.98242 2.280392,0.43326 6.251647,1.02778 8.824219,1.32032 2.572571,0.29254 6.394672,0.55147 8.49414,0.57617 2.099483,0.0247 6.309809,-0.22581 9.355469,-0.55664 3.04567,-0.33082 7.64227,-1.02322 10.21484,-1.53906 2.57257,-0.51583 6.41185,-1.47147 8.53125,-2.12305 2.1194,-0.65159 5.45241,-1.81811 7.40625,-2.5918 1.95385,-0.7737 5.62238,-2.45421 8.15235,-3.73437 2.52996,-1.28018 6.21155,-3.38375 8.18359,-4.67578 1.97204,-1.29203 4.99003,-3.40992 6.70508,-4.70508 1.71505,-1.29516 5.2854,-4.46344 7.93359,-7.04102 2.64818,-2.57759 6.08593,-6.26034 7.64063,-8.18554 1.55468,-1.92521 4.18482,-5.56915 5.84375,-8.09766 0.34989,-0.5333 0.75386,-1.19306 1.16406,-1.87305 -0.40395,0.20664 -7.66141,1.61105 -16.3457,3.16211 -8.78961,1.56989 -16.20078,3.02271 -16.46875,3.22656 -0.33366,0.2538 -0.48633,1.62047 -0.48633,4.33594 0,2.36215 -0.2326,4.74032 -0.57422,5.88281 -0.3154,1.0549 -1.11812,2.57459 -1.7832,3.37696 -0.66509,0.80238 -2.02873,1.93931 -3.03125,2.52734 -1.82277,1.06918 -1.82327,1.07036 -41.191409,1.1543 -32.210226,0.0686 -39.633506,-0.0125 -40.830078,-0.44141 -0.804366,-0.28849 -2.063876,-0.98167 -2.798828,-1.54101 -0.734948,-0.55935 -1.720085,-1.55518 -2.189453,-2.21289 -0.469361,-0.65773 -1.09666,-1.99936 -1.392578,-2.98047 -0.305802,-1.01383 -0.53711,-3.49905 -0.53711,-5.75782 0,-2.7225 -0.154499,-4.08985 -0.488281,-4.34375 -0.267968,-0.20386 -7.659476,-1.66158 -16.425781,-3.23828 -15.938735,-2.86675 -15.938246,-2.86591 -17.21875,-4.86328 -0.204977,-0.31973 -0.527536,-0.89907 -0.8125,-1.39453 z"
       id="path1524"
       inkscape:connector-curvature="0"
       transform="scale(0.26458333)" />
  </g>
  <g
     id="g21"
     inkscape:groupmode="layer"
     inkscape:label="B.Cu"
     style="display:inline" />
  <g
     id="g31"
     inkscape:groupmode="layer"
     inkscape:label="B.Silk"
     style="display:none" />
  <g
     id="g33"
     inkscape:groupmode="layer"
     inkscape:label="F.Silk"
     style="display:inline">
    <path
       style="fill:#000000;fill-opacity:1;stroke:#000000;stroke-width:0.37795276;stroke-opacity:1;stroke-miterlimit:4;stroke-dasharray:none"
       d="m 116.06641,57.832031 c -2.383,-0.0345 -2.65273,0.200543 -3.73047,1.144531 -0.88221,0.772729 -1.59654,1.849536 -1.84961,2.78711 -0.34521,1.278921 -0.28578,1.814023 0.36914,3.291016 1.08139,2.438792 2.80074,3.133903 8.42773,3.410156 8.35457,0.410158 17.169,2.822039 25.57618,7 2.68329,1.333467 5.40509,2.634895 6.05078,2.890625 1.53555,0.60815 1.49281,0.608366 3.32031,-0.121094 2.80111,-1.118081 4.03213,-3.914411 2.93164,-6.658203 -0.34273,-0.854501 -1.1108,-1.913762 -1.70703,-2.353516 -2.04453,-1.507954 -7.66793,-4.312798 -12.15625,-6.064453 -8.40044,-3.278427 -15.80318,-4.886289 -24.03711,-5.21875 -1.37223,-0.05541 -2.40098,-0.09592 -3.19531,-0.107422 z"
       transform="scale(0.26458333)"
       id="path1057" />
    <path
       style="fill:#000000;fill-opacity:1;stroke:#000000;stroke-width:0.37795276;stroke-opacity:1;stroke-miterlimit:4;stroke-dasharray:none"
       d="m 72.822266,57.835938 c -0.821535,0.01381 -1.886108,0.05762 -3.306641,0.117187 -11.24159,0.471409 -24.185233,4.271863 -33.935547,9.964844 -2.400356,1.401516 -2.998594,1.960278 -3.640625,3.408203 -1.26173,2.8455 -0.245327,5.517033 2.589844,6.810547 0.905434,0.413098 2.011036,0.62985 2.59375,0.509765 0.558686,-0.115133 3.414038,-1.419306 6.345703,-2.898437 8.6544,-4.366472 17.466679,-6.805013 26.611328,-7.363281 5.667035,-0.345962 6.952477,-0.882885 8.056641,-3.373047 0.636141,-1.434632 0.693257,-1.974875 0.349609,-3.248047 -0.253249,-0.93822 -0.965561,-2.014713 -1.849609,-2.789063 -1.079262,-0.945319 -1.349849,-1.180112 -3.814453,-1.138671 z"
       transform="scale(0.26458333)"
       id="path1052" />
  </g>
  <g
     id="g35"
     inkscape:groupmode="layer"
     inkscape:label="B.Mask"
     style="display:inline" />
  <g
     id="g37"
     inkscape:groupmode="layer"
     inkscape:label="F.Mask"
     style="display:inline">
    <path
       style="display:inline;fill:#800080;fill-opacity:0.7069768;stroke-width:1.58113873"
       d="m 181.30078,131.72852 c 0.0261,-0.0424 0.056,-0.10717 0.084,-0.16016 -0.005,-0.002 -0.009,-0.006 -0.0137,-0.008 -0.0234,0.056 -0.0464,0.11214 -0.0703,0.16797 z"
       id="path1470"
       transform="scale(0.26458333)"
       inkscape:connector-curvature="0" />
    <path
       style="display:inline;fill:#800080;fill-opacity:0.7069768;stroke-width:1.58113873"
       d="m 188.61719,94.832031 -0.0606,0.02344 0.002,0.0039 c 7.8e-4,-6.6e-5 0.058,-0.02734 0.0586,-0.02734 z"
       id="path1468"
       transform="scale(0.26458333)"
       inkscape:connector-curvature="0" />
    <path
       style="display:inline;fill:#800080;fill-opacity:0.7069768;stroke-width:1.58113873"
       d="m 188.61719,94.832031 c -125.744793,62.762899 -62.8724,31.381449 0,0 z"
       id="path1466"
       transform="scale(0.26458333)"
       inkscape:connector-curvature="0"
       sodipodi:nodetypes="cc" />
    <g
       id="g1518"
       transform="matrix(0.38978351,0,0,0.38892936,-21.264553,-29.734088)" />
    <path
       transform="matrix(0.38978351,0,0,0.38892935,-21.264553,-29.734089)"
       style="display:inline;fill:#000080;fill-opacity:1;stroke:none;stroke-width:0.26458332;stroke-opacity:1"
       d="m 91.486663,190.11161 c -0.545999,-0.19626 -1.4009,-0.66817 -1.899782,-1.04868 -0.49888,-0.38052 -1.167728,-1.05793 -1.486331,-1.50536 -0.318601,-0.44744 -0.743622,-1.3596 -0.944489,-2.02704 -0.207568,-0.68969 -0.365215,-2.38058 -0.365215,-3.91719 0,-1.85208 -0.104172,-2.78309 -0.330729,-2.95581 -0.181901,-0.13868 -5.199343,-1.12974 -11.149871,-2.20235 -10.819143,-1.95021 -10.819143,-1.95021 -11.688343,-3.30899 -0.478061,-0.74733 -1.378528,-2.38575 -2.001038,-3.64094 -0.622511,-1.25519 -1.062211,-2.3518 -0.977111,-2.4369 0.0851,-0.0851 5.726981,0.86293 12.537513,2.10673 6.810531,1.2438 12.658812,2.26146 12.996183,2.26146 0.613396,0 0.613396,0 0.613396,-7.92707 0,-6.30539 -0.07292,-7.99518 -0.356433,-8.26003 -0.196041,-0.18312 -7.429087,-3.55133 -16.073437,-7.48491 -15.717003,-7.15195 -15.717003,-7.15195 -15.795898,-8.96683 -0.04339,-0.99819 0.05435,-2.45671 0.217196,-3.24115 0.146941,-1.65606 0.397817,-1.42626 0.52215,-1.42626 0.124332,0 7.156597,3.15228 15.627254,7.00507 8.470658,3.85279 15.50424,6.94139 15.630182,6.86355 0.125942,-0.0778 0.228986,-1.12491 0.228986,-2.32684 0,-1.21853 0.184383,-2.8062 0.416777,-3.58876 0.297855,-1.00299 0.772356,-1.75902 1.662954,-2.64962 0.78776,-0.78775 1.722408,-1.40844 2.540772,-1.68729 1.174028,-0.40003 3.725299,-0.44111 27.394081,-0.44111 23.66878,0 26.22005,0.0411 27.39408,0.44111 0.81836,0.27885 1.75301,0.89954 2.54077,1.68729 0.8906,0.8906 1.3651,1.64663 1.66295,2.64962 0.2324,0.78256 0.41678,2.37023 0.41678,3.58876 0,1.20193 0.10108,2.24779 0.22461,2.32414 0.12354,0.0764 7.15728,-3.01225 15.63054,-6.86355 8.47326,-3.8513 15.50205,-7.00237 15.61953,-7.00237 0.11748,0 0.28539,0.26789 0.37314,0.59531 0.0877,0.32742 0.16116,1.75343 0.16315,3.1689 0.003,2.3807 -0.041,2.60239 -0.5917,2.95781 -0.32742,0.21133 -7.43634,3.49146 -15.79759,7.28919 -8.36126,3.79773 -15.29482,7.05062 -15.40793,7.22864 -0.11311,0.17803 -0.20747,3.8658 -0.2097,8.19504 -0.004,7.87136 -0.004,7.87136 0.61002,7.87136 0.33775,0 6.14204,-1.0109 12.89844,-2.24645 6.7564,-1.23555 12.37366,-2.24758 12.4828,-2.24896 0.10914,-10e-4 0.19844,0.18997 0.19844,0.42521 0,0.23525 -0.73084,1.84167 -1.62409,3.56984 -0.89324,1.72817 -1.75645,3.24192 -1.91823,3.3639 -0.16177,0.12198 -5.1757,1.09557 -11.14206,2.16354 -5.96635,1.06797 -10.99674,2.05523 -11.17864,2.19391 -0.22647,0.17265 -0.33073,1.10254 -0.33073,2.94984 0,1.60694 -0.1574,3.22528 -0.38928,4.0025 -0.2141,0.71763 -0.75864,1.7514 -1.2101,2.29724 -0.45146,0.54585 -1.37761,1.31976 -2.05812,1.71979 -1.23729,0.72735 -1.23729,0.72735 -27.96021,0.78445 -21.86416,0.0467 -26.903408,-0.008 -27.715637,-0.29974 z"
       id="path1522"
       inkscape:connector-curvature="0"
       sodipodi:nodetypes="ccccscssssssscsccsscssccscccscsscccsccsscsccscscccsc" />
  </g>
  <g
     id="g47"
     inkscape:groupmode="layer"
     inkscape:label="Edge.Cuts"
     style="display:inline">
    <path
       sodipodi:nodetypes="ssssss"
       inkscape:connector-curvature="0"
       id="path1288"
       d="M50.0 25.0L49.9918 25.645261L49.96743 26.286497L49.92706 26.92351L49.87089 27.556105L49.79911 28.184085L49.71191 28.807254L49.609493 29.425415L49.492055 30.038372L49.359792 30.645929L49.2129 31.24789L49.051576 31.844057L48.876016 32.434235L48.686416 33.018228L48.482973 33.595839L48.265883 34.166871L48.035342 34.731128L47.534695 35.838534L46.982601 36.916485L46.380632 37.96341L45.730359 38.977738L45.033352 39.957899L44.291181 40.902322L43.505419 41.809436L42.677636 42.67767L41.809402 43.505453L40.902288 44.291215L39.957865 45.033386L38.977704 45.730393L37.963376 46.380666L36.916451 46.982635L35.8385 47.534729L34.731094 48.035376L34.166837 48.265917L33.595805 48.483007L33.018194 48.68645L32.434201 48.87605L31.844023 49.05161L31.247856 49.212934L30.645895 49.359826L30.038338 49.492089L29.425381 49.609527L28.80722 49.711944L28.184051 49.799144L27.556071 49.870924L26.923476 49.927094L26.286463 49.967464L25.645227 49.991834L25.0 50.0L24.354739 49.9918L23.713503 49.96743L23.07649 49.92706L22.443895 49.87089L21.815915 49.79911L21.192746 49.71191L20.574585 49.609527L19.961628 49.492089L19.354071 49.359826L18.75211 49.212934L18.155943 49.05161L17.565765 48.87605L16.981772 48.68645L16.404161 48.483007L15.833129 48.265917L15.268872 48.035376L14.161466 47.534729L13.083515 46.982635L12.03659 46.380666L11.022262 45.730393L10.042101 45.033386L9.0976784 44.291215L8.1905645 43.505453L7.3223304 42.67767L6.4945468 41.809436L5.7087846 40.902322L4.9666145 39.957899L4.2696073 38.977738L3.6193339 37.96341L3.0173649 36.916485L2.4652714 35.838534L1.9646239 34.731128L1.7340833 34.166871L1.5169933 33.595839L1.3135503 33.018228L1.1239505 32.434235L0.94839034 31.844057L0.78706616 31.24789L0.64017431 30.645929L0.50791113 30.038372L0.39047298 29.425415L0.28805621 28.807254L0.20085716 28.184085L0.12907218 27.556105L0.07289762 26.92351L0.03252984 26.286497L0.00816519 25.645261L0.0 25.0L0.00816519 24.354739L0.03252984 23.713503L0.07289763 23.07649L0.12907218 22.443895L0.20085718 21.815915L0.28805618 21.192747L0.39047296 20.574586L0.50791111 19.961628L0.64017429 19.354071L0.78706615 18.752111L0.94839033 18.155943L1.1239505 17.565765L1.3135503 16.981772L1.5169934 16.404162L1.7340834 15.83313L1.9646239 15.268872L2.4652714 14.161466L3.017365 13.083516L3.6193339 12.036591L4.2696074 11.022262L4.9666145 10.042101L5.7087847 9.0976786L6.4945469 8.1905647L7.3223305 7.3223305L8.1905647 6.4945469L9.0976786 5.7087847L10.042101 4.9666145L11.022262 4.2696074L12.036591 3.6193339L13.083516 3.017365L14.161466 2.4652714L15.268872 1.9646239L15.83313 1.7340834L16.404162 1.5169934L16.981772 1.3135503L17.565765 1.1239505L18.155943 0.94839036L18.752111 0.78706618L19.354071 0.64017432L19.961628 0.50791114L20.574586 0.39047299L21.192747 0.28805621L21.815915 0.20085721L22.443895 0.12907221L23.07649 0.07289763L23.713503 0.03252984L24.354739 0.00816519L25.0 0.0L25.645261 0.00816519L26.286497 0.03252984L26.92351 0.07289762L27.556105 0.12907218L28.184085 0.20085718L28.807254 0.28805618L29.425415 0.39047295L30.038372 0.5079111L30.645929 0.64017428L31.24789 0.78706613L31.844057 0.94839031L32.434235 1.1239505L33.018228 1.3135503L33.595839 1.5169933L34.166871 1.7340833L34.731128 1.9646239L35.838534 2.4652714L36.916485 3.0173649L37.96341 3.6193339L38.977738 4.2696073L39.957899 4.9666145L40.902322 5.7087846L41.809436 6.4945468L42.67767 7.3223304L43.505453 8.1905645L44.291215 9.0976784L45.033386 10.042101L45.730393 11.022262L46.380666 12.03659L46.982635 13.083515L47.534729 14.161466L48.035376 15.268872L48.265917 15.833129L48.483007 16.404161L48.68645 16.981772L48.87605 17.565765L49.05161 18.155943L49.212934 18.75211L49.359826 19.354071L49.492089 19.961628L49.609527 20.574585L49.711944 21.192746L49.799144 21.815915L49.870924 22.443895L49.927094 23.07649L49.967464 23.713503L49.991834 24.354739L50.0 25.0L50.0 25.0"
       style="display:inline;fill:none;fill-opacity:1;stroke:#008000;stroke-width:0.015;stroke-miterlimit:4;stroke-dasharray:none;stroke-opacity:1" />
  </g>
  <g
     id="g59"
     inkscape:groupmode="layer"
     inkscape:label="Drill"
     style="display:none" />
</svg>
